<svg xmlns="http://www.w3.org/2000/svg" viewBox="0 0 318.78 43.91"><defs><style>.cls-1{fill:#e59500;}.cls-2{fill:#f1f1f2;}</style></defs><g id="Layer_2" data-name="Layer 2"><g id="Layer_1-2" data-name="Layer 1"><path class="cls-1" d="M22.19.94H47.28c1.48,0,2.38,1.12,1.59,2L34.58,18.49H45c1.17,0,1.75,1,.9,1.53L10.42,43.29H7.34c-.29,0-.48-.21-.35-.38L18,27.85c.5-.69-.23-1.5-1.35-1.5H.92c-.72,0-1.16-.53-.78-1Z"/><path class="cls-2" d="M98.53,13.5a2.75,2.75,0,0,1-2.47-1.6c-1.5-3.13-5.76-4.65-13.39-4.65-8.21,0-12.53,1.73-12.53,4.83,0,2.6,3,4.09,10.84,5.2s15.58,2.23,20.74,3.59c6.11,1.61,11,4.15,11,10,0,9.05-11.58,13.07-27.9,13.07-16.79,0-28.61-4.28-29.53-13a.69.69,0,0,1,.69-.74h12.3a1.3,1.3,0,0,1,1.23,1c1,3.63,6.8,5.83,15.42,5.83s13.58-2.16,13.58-5.82c0-2.41-2.11-4.08-10.84-5.2s-14.21-1.86-19.16-3.16c-7.48-2-11.69-4.95-11.69-10.16C56.77,5.26,65.3,0,82.35,0s26.93,5.28,28,12.74a.68.68,0,0,1-.68.76Z"/><path class="cls-2" d="M145.93,28.54h12.74v2.55c0,6.44-6.32,12.2-20.95,12.2-15.16,0-21.16-5.7-21.16-12.26V3.78H130V8.61a3.4,3.4,0,0,0,3.4,3.4h22.68a2.55,2.55,0,0,1,2.55,2.55v3.15h-25.8A2.83,2.83,0,0,0,130,20.55v9.67c0,3.84,2.31,6.07,7.89,6.07s8-2.16,8-5.94Z"/><path class="cls-2" d="M163.27,27.28c0-9.66,5.52-16.07,21.94-16.07,16.21,0,20.54,6.32,20.54,16s-4.43,16-20.54,16C168.47,43.29,163.27,36.76,163.27,27.28Zm34.47,0c0-6.19-4.21-9.23-12.53-9.23s-12.53,3-12.53,9.23,4.22,9.29,12.53,9.29S197.74,33.44,197.74,27.25Z"/><path class="cls-2" d="M210.07,42.49V12h12.85v1.4a1.09,1.09,0,0,0,1.7.91c4.12-2.82,8.77-3.11,13.66-3.11h1.79v7.43a.74.74,0,0,1-.8.74c-1-.08-2-.12-3-.12-8.42,0-12.52,2.48-12.52,7.37V42.49Z"/><path class="cls-2" d="M305.42,42.49V24c0-3.65-3.27-6.25-8.11-6.25-5.05,0-8.74,2.78-8.74,6.5V42.49H274.89V24.15c0-4.89-2.21-6.13-8.21-6.13-5.48,0-8.32,2-8.32,5.95V42.49H244.67V12h11.84a1,1,0,0,1,1,1v2.57a.35.35,0,0,0,.6.23c3.42-3.51,8.1-4.61,14.56-4.61,7.05,0,10.42,1.3,14.42,4.83,2.84-3.34,7.47-4.83,14-4.83,10.42,0,17.68,4.46,17.68,10.16V39.11a3.37,3.37,0,0,1-3.37,3.38Z"/></g></g></svg>